<mxfile host="app.diagrams.net" modified="2024-06-06T17:30:21.142Z" agent="Mozilla/5.0 (Windows NT 10.0; Win64; x64) AppleWebKit/537.36 (KHTML, like Gecko) Chrome/120.0.0.0 Safari/537.36 Edg/120.0.0.0" version="24.5.1" etag="T1BTBE3fjB-w3vX1NiMN" type="github">
  <diagram name="PÃ¡gina-1" id="_7JN3uC550Z-9FWGuuGC">
    <mxGraphModel>
      <root>
        <mxCell id="0" />
        <mxCell id="1" parent="0" />
      </root>
    </mxGraphModel>
  </diagram>
</mxfile>
